<svg id="wave" style="transform:rotate(0deg); transition: 0.3s" viewBox="0 0 1440 370" version="1.1" xmlns="http://www.w3.org/2000/svg"><defs><linearGradient id="sw-gradient-0" x1="0" x2="0" y1="1" y2="0"><stop stop-color="rgba(243, 160.421, 62, 1)" offset="0%"></stop><stop stop-color="rgba(190.518, 198.498, 44.889, 1)" offset="100%"></stop></linearGradient></defs><path style="transform:translate(0, 0px); opacity:1" fill="url(#sw-gradient-0)" d="M0,259L240,265.2C480,271,960,284,1440,277.5C1920,271,2400,247,2880,228.2C3360,210,3840,197,4320,178.8C4800,160,5280,136,5760,160.3C6240,185,6720,259,7200,277.5C7680,296,8160,259,8640,215.8C9120,173,9600,123,10080,135.7C10560,148,11040,222,11520,246.7C12000,271,12480,247,12960,203.5C13440,160,13920,99,14400,74C14880,49,15360,62,15840,86.3C16320,111,16800,148,17280,191.2C17760,234,18240,284,18720,289.8C19200,296,19680,259,20160,246.7C20640,234,21120,247,21600,222C22080,197,22560,136,23040,123.3C23520,111,24000,148,24480,191.2C24960,234,25440,284,25920,289.8C26400,296,26880,259,27360,209.7C27840,160,28320,99,28800,117.2C29280,136,29760,234,30240,252.8C30720,271,31200,210,31680,160.3C32160,111,32640,74,33120,49.3C33600,25,34080,12,34320,6.2L34560,0L34560,370L34320,370C34080,370,33600,370,33120,370C32640,370,32160,370,31680,370C31200,370,30720,370,30240,370C29760,370,29280,370,28800,370C28320,370,27840,370,27360,370C26880,370,26400,370,25920,370C25440,370,24960,370,24480,370C24000,370,23520,370,23040,370C22560,370,22080,370,21600,370C21120,370,20640,370,20160,370C19680,370,19200,370,18720,370C18240,370,17760,370,17280,370C16800,370,16320,370,15840,370C15360,370,14880,370,14400,370C13920,370,13440,370,12960,370C12480,370,12000,370,11520,370C11040,370,10560,370,10080,370C9600,370,9120,370,8640,370C8160,370,7680,370,7200,370C6720,370,6240,370,5760,370C5280,370,4800,370,4320,370C3840,370,3360,370,2880,370C2400,370,1920,370,1440,370C960,370,480,370,240,370L0,370Z"></path></svg>